<svg xmlns="http://www.w3.org/2000/svg" xmlns:xlink="http://www.w3.org/1999/xlink" viewBox="0 0 131 131"><defs><style>.cls-1{isolation:isolate;}.cls-2{fill:none;}.cls-2,.cls-5{stroke:#09294b;stroke-linecap:round;stroke-linejoin:round;stroke-width:3px;}.cls-3,.cls-4{mix-blend-mode:multiply;}.cls-3{fill:url(#linear-gradient);}.cls-4{fill:url(#linear-gradient-2);}.cls-5{fill:#fff;}</style><linearGradient id="linear-gradient" x1="28.58" y1="105.6" x2="42.39" y2="48.92" gradientUnits="userSpaceOnUse"><stop offset="0" stop-color="#9cfacd"/><stop offset="1" stop-color="#139df2"/></linearGradient><linearGradient id="linear-gradient-2" x1="86.6" y1="114.8" x2="86.34" y2="53.17" xlink:href="#linear-gradient"/></defs><title>Places</title><g class="cls-1"><g id="Layer_1" data-name="Layer 1"><path class="cls-2" d="M19.93,86C10.07,88.62,4.05,92.17,4.05,96.07c0,8.29,27.15,15,60.64,15s60.64-6.72,60.64-15c0-3.76-5.58-7.19-14.8-9.82"/><polygon class="cls-2" points="87.08 62.2 87.08 86.38 69.98 91.49 69.98 66.97 87.08 62.2"/><polygon class="cls-2" points="104.73 57.69 104.73 93.86 94.04 96.94 94.04 60.56 104.73 57.69"/><polygon class="cls-2" points="20.2 36.65 20.2 93.85 62.27 105.98 62.27 48.44 20.2 36.65"/><polygon class="cls-3" points="14.99 40.4 14.99 97.6 57.05 109.72 57.05 52.19 14.99 40.4"/><polygon class="cls-4" points="110.53 50.08 110.53 71.19 62.27 84.98 62.27 67.44 110.53 50.08"/><polygon class="cls-2" points="20.2 36.65 62.27 48.44 110.53 34.99 68.47 23.2 20.2 36.65"/><polygon class="cls-2" points="110.53 34.99 110.53 92.19 62.27 105.98 62.27 48.44 110.53 34.99"/><polygon class="cls-5" points="30.56 23.91 30.56 34.12 42.98 37.7 42.98 27.4 30.56 23.91"/><polygon class="cls-5" points="30.56 23.91 42.98 27.4 55.41 23.91 42.98 20.43 30.56 23.91"/><polygon class="cls-5" points="55.41 23.91 55.41 34.12 42.98 37.7 42.98 27.4 55.41 23.91"/><polygon class="cls-5" points="110.53 34.99 126 49.27 77.74 63.06 62.27 48.44 110.53 34.99"/><polygon class="cls-5" points="126 49.27 126 56.23 77.74 70.02 77.74 63.06 126 49.27"/><polygon class="cls-5" points="62.27 48.44 62.27 65.37 77.74 70.02 77.74 63.06 62.27 48.44"/></g></g></svg>