<svg xmlns="http://www.w3.org/2000/svg" xmlns:xlink="http://www.w3.org/1999/xlink" viewBox="0 0 89.5 72.67"><defs><style>.cls-1{fill:url(#linear-gradient);}</style><linearGradient id="linear-gradient" x1="40.3" y1="24.6" x2="89.5" y2="24.6" gradientUnits="userSpaceOnUse"><stop offset="0" stop-color="#58b4f9"/><stop offset="1" stop-color="#87d6dc"/></linearGradient></defs><title>economics</title><g id="Layer_2" data-name="Layer 2"><g id="Layer_1-2" data-name="Layer 1"><circle class="cls-1" cx="64.9" cy="24.6" r="24.6"/><path d="M78.11,71.91a1.85,1.85,0,0,1-1.77.76H1.73a.75.75,0,0,1-.15,0c-1,0-1.56-.4-1.58-1.15S.54,70.3,1.6,70.3H6.7V53.75c0-1.47.33-1.81,1.77-1.81h9.77c1.36,0,1.73.37,1.73,1.72V70.24h4V46.8c0-1.45.32-1.76,1.73-1.77h9.76c1.37,0,1.69.31,1.69,1.72V70.23h4V48.72c0-1.67.27-1.94,2-1.94h9.53c1.42,0,1.76.34,1.76,1.75V70.24h3.94c0-.32,0-.64,0-.95V36.94c0-1.68.27-1.95,1.94-1.95h9.54c1.35,0,1.71.37,1.71,1.73V70.3c1.7,0,3.35,0,5,0a1.68,1.68,0,0,1,1.57.7Zm-9-1.66V37.43H60.77V70.25Zm-34.41,0V47.42H26.36V70.25Zm17.15,0v-21H43.52v21Zm-34.39,0V54.38H9.11V70.25Z"/><path d="M54.23,17.84A10.72,10.72,0,1,1,65,28.52,10.69,10.69,0,0,1,54.23,17.84Zm19.08.07a8.4,8.4,0,1,0-8.67,8.23A8.39,8.39,0,0,0,73.31,17.91Z"/><path d="M13.71,47c-.33-.27-.77-.45-.9-.76a1.92,1.92,0,0,1,.07-1.2c.08-.25.41-.43.66-.61,5.18-3.71,10.38-7.4,15.55-11.13A2.07,2.07,0,0,1,31.34,33c4.67,2,9.36,3.91,14,5.89a1.15,1.15,0,0,0,1.36-.18q5.43-4.38,10.9-8.7a3.47,3.47,0,0,1,.7-.45,1.08,1.08,0,0,1,1.37.34,1.12,1.12,0,0,1,0,1.47,3.75,3.75,0,0,1-.62.57q-5.82,4.62-11.64,9.24a1.73,1.73,0,0,1-2,.27c-4.77-2-9.56-4-14.34-6a1.21,1.21,0,0,0-1.37.15Q22.32,41,14.84,46.35C14.52,46.58,14.15,46.74,13.71,47Z"/><path d="M61.45,22.71l.19-1.82c1,.18,1.9.4,2.83.52a1.38,1.38,0,0,0,1.58-.93c.22-.63-.15-1.17-1-1.58-.61-.3-1.26-.55-1.85-.89a2.84,2.84,0,0,1-1.52-2.71,2.92,2.92,0,0,1,1.77-2.79.7.7,0,0,0,.49-.82,7,7,0,0,1,0-.8H65.7l.07,1.31,1.67.41-.21,1.78a18.61,18.61,0,0,0-2.08-.3,1.1,1.1,0,0,0-1.22,1.42,1.48,1.48,0,0,0,.63.86c.61.36,1.29.6,1.92.92A3.11,3.11,0,0,1,66.41,23a.69.69,0,0,0-.48.81c0,.28,0,.56,0,.88H64.26c-.18-1.31-.18-1.31-1.5-1.67Z"/></g></g></svg>