<svg xmlns="http://www.w3.org/2000/svg" xmlns:xlink="http://www.w3.org/1999/xlink" viewBox="0 0 59.83 92.32"><defs><style>.cls-1{fill:url(#linear-gradient);}</style><linearGradient id="linear-gradient" x1="8.37" y1="70.78" x2="51.46" y2="70.78" gradientUnits="userSpaceOnUse"><stop offset="0" stop-color="#58b4f9"/><stop offset="1" stop-color="#87d6dc"/></linearGradient></defs><title>environmental-sciences</title><g id="Layer_2" data-name="Layer 2"><g id="Layer_1-2" data-name="Layer 1"><circle class="cls-1" cx="29.91" cy="70.78" r="21.54"/><path d="M59,0c.84.6.94.86.68,1.87A95.88,95.88,0,0,1,55,16.18c-1,2.37-2.23,4.64-4.4,6.19-3.16,2.25-6.54,3-10.22,1.3-.54-.26-1-.61-1.57-.94-2.64,2.61-5.53,5-6.74,8.72-.45,1.37-.71,2.8-1.08,4.34h8.92a3.88,3.88,0,0,1,.76,0,1.15,1.15,0,0,1-.14,2.29c-.75,0-1.52,0-2.4,0V74.18a8.2,8.2,0,1,1-16.38.58c-.08-8,0-27.7,0-35.7v-.92H19.61c-.9,0-1.42-.45-1.42-1.18s.53-1.17,1.42-1.17h9c-.2-5.78-3.7-9.53-7.57-13A21.68,21.68,0,0,1,18,24.23c-3.69,1-6.86-.15-9.64-2.61a14.58,14.58,0,0,1-3.44-5.3A96.79,96.79,0,0,1,.07,1.75,1.44,1.44,0,0,1,.77,0H1.6c.25.09.5.21.76.28A92.41,92.41,0,0,1,16.2,4.88a14.38,14.38,0,0,1,5.37,3.47c2.36,2.69,3.62,5.76,2.73,9.37a23.24,23.24,0,0,1-1.49,3.47c2.67,2.66,5.66,5.25,7.09,9.11,1.45-3.89,4.46-6.48,7.23-9.25l-.27-.38a8.38,8.38,0,0,1-1.43-6.9,11.53,11.53,0,0,1,6.72-8.21A77.8,77.8,0,0,1,54.36,1.12L58.19,0Zm-35,38.17V74.09c0,.35,0,.7,0,1a5.86,5.86,0,0,0,11.67-1c0-7.88,0-27.46,0-35.34,0-.22,0-.44,0-.66H31.08V39c0,.88,0,16.17,0,17a1.16,1.16,0,1,1-2.32,0c0-.32,0-.64,0-1V38.17ZM15.74,14s.08,0,.09-.06c.25-.49.5-1,.76-1.48.4-.76,1-1,1.63-.73a1.2,1.2,0,0,1,.46,1.77c-.31.67-.67,1.32-1,2a.64.64,0,0,0,0,.54c1.06,1.1,2.16,2.18,3.28,3.31a6.48,6.48,0,0,0,.6-6.71,9.94,9.94,0,0,0-5.34-5.17A88.91,88.91,0,0,0,3.18,2.93a1.31,1.31,0,0,0-.35,0A86.61,86.61,0,0,0,7.52,16.43,9.62,9.62,0,0,0,13.83,22a6.09,6.09,0,0,0,5.5-1c-1.1-1.1-2.16-2.16-3.24-3.2a.67.67,0,0,0-.59-.06c-.61.26-1.2.58-1.8.88-1,.47-1.64.35-2-.35s0-1.27.95-1.76l1.45-.75C13.36,15,12.7,14.33,12,13.7a.82.82,0,0,0-.7-.1c-.65.28-1.28.64-1.92,1-.8.39-1.48.23-1.8-.4s-.06-1.26.74-1.69L10,11.59c-.26-.22-.45-.35-.62-.52C8.57,10.26,7.75,9.45,7,8.62A1.12,1.12,0,0,1,6.93,7a1.17,1.17,0,0,1,1.62-.06,6.6,6.6,0,0,1,.6.58L11.59,10c.33-.65.59-1.18.87-1.7.39-.76,1-1,1.64-.71a1.2,1.2,0,0,1,.45,1.77l-1.15,2.3Zm32.49-4c.55-.58,1-1.06,1.43-1.53s.94-1,1.43-1.42a1.18,1.18,0,1,1,1.64,1.67c-.16.17-.32.33-.49.49l-2.39,2.38c.64.32,1.17.58,1.7.86.75.4,1,1,.69,1.64a1.19,1.19,0,0,1-1.72.46c-.69-.33-1.35-.7-2.05-1a.67.67,0,0,0-.59.05c-.73.66-1.43,1.37-2.13,2,.09.11.11.16.15.18l1.47.76c.76.41,1,1,.73,1.63a1.22,1.22,0,0,1-1.78.47c-.67-.32-1.31-.67-2-1a.64.64,0,0,0-.54,0c-1.1,1.07-2.18,2.16-3.3,3.28a6.45,6.45,0,0,0,6.71.59,10,10,0,0,0,5.23-5.46A91,91,0,0,0,56.91,3.22a1.16,1.16,0,0,0,0-.36A83.13,83.13,0,0,0,43,7.74a9.39,9.39,0,0,0-5.23,6.19,6,6,0,0,0,1,5.41c1.1-1.1,2.16-2.15,3.2-3.23a.67.67,0,0,0,.07-.59c-.27-.61-.58-1.2-.88-1.8-.47-1-.36-1.63.34-2s1.28,0,1.77.95l.72,1.43c.77-.77,1.48-1.46,2.14-2.18a.67.67,0,0,0,0-.59c-.31-.69-.68-1.36-1-2a1.18,1.18,0,1,1,2.1-1Z"/><path d="M28.74,52.23c0-1.89,0-3.78,0-5.67a1.22,1.22,0,0,1,.75-1.28,1.11,1.11,0,0,1,1.51.78,3.22,3.22,0,0,1,.08.82V49.7a5.24,5.24,0,0,1,0,.56,1.13,1.13,0,0,1-1.21,1.14,1.11,1.11,0,0,1-1.09-1.19c0-.85,0,6.13,0,5.28Z"/><path d="M28.76,56.13c0-.42,0-.83,0-1.24a1.12,1.12,0,0,1,1.11-1.1,1.08,1.08,0,0,1,1.14,1,20,20,0,0,1,0,2.68,1.06,1.06,0,0,1-1.13,1,1.1,1.1,0,0,1-1.12-1.08C28.73,57,28.76,56.54,28.76,56.13Z"/></g></g></svg>