<svg xmlns="http://www.w3.org/2000/svg" xmlns:xlink="http://www.w3.org/1999/xlink" viewBox="0 0 69.96 76.78"><defs><style>.cls-1{fill:url(#linear-gradient);}</style><linearGradient id="linear-gradient" x1="8.63" y1="19.07" x2="69.96" y2="19.07" gradientUnits="userSpaceOnUse"><stop offset="0" stop-color="#58b4f9"/><stop offset="1" stop-color="#87d6dc"/></linearGradient></defs><title>finance</title><g id="Layer_2" data-name="Layer 2"><g id="Layer_1-2" data-name="Layer 1"><rect class="cls-1" x="8.63" width="61.33" height="38.14"/><path d="M60,76.11A18.23,18.23,0,0,0,63.24,75a4.49,4.49,0,0,0,2.64-2.81V39.47a5.13,5.13,0,0,0-3.43-3.18c-.89-.35-1.82-.6-2.8-.88l-1.4-.4-.53-.16V12.53c0-1.26-.39-1.64-1.67-1.64H1.65C.39,10.89,0,11.28,0,12.54V61.68c0,1.3.38,1.67,1.7,1.67H42.37v4.12c0,1.26,0,2.52,0,3.78a3.43,3.43,0,0,0,1.54,3,13,13,0,0,0,5.66,2.11c.63.11,1.27.19,1.91.27l.86.12h3.58q.62-.11,1.23-.18C58.13,76.46,59.07,76.33,60,76.11ZM55.23,13.37v6.41l-.83-.08c-2.56-.26-5.18-3.22-5.53-5.46l-.14-.87ZM2.46,18.31v-4a1,1,0,0,1,.18-.53l.22-.34.44-.06H7.83l.26,0,.75.09v.75c-.28,2.38-3.13,5.22-5.53,5.53l-.84.11Zm0,26.76V38.56l.89.15a7.62,7.62,0,0,1,5.47,5.47l.17.89Zm0,2.53H42.34V53H2.5ZM42.34,60.87H2.5V55.5H42.34Zm.9-22.9a2.68,2.68,0,0,0-.87,2.15c0,1,0,1.91,0,2.9v2.09H12.94a1.43,1.43,0,0,1-1.59-1.21,10.31,10.31,0,0,0-7.8-7.73,1.31,1.31,0,0,1-1.11-1.41c0-3.71,0-7.41,0-11.12a1.28,1.28,0,0,1,1.08-1.37,10.25,10.25,0,0,0,7.87-7.89,1.28,1.28,0,0,1,1.39-1.06H45a1.28,1.28,0,0,1,1.38,1.07,10.28,10.28,0,0,0,7.87,7.89,1.21,1.21,0,0,1,1.08,1.24q0,4,0,8.08v3l-.68.07-1.6.14a32.83,32.83,0,0,0-3.41.4,23.32,23.32,0,0,0-4.31,1.29A7.29,7.29,0,0,0,43.24,38Zm2,1.46c3.47-2.88,14.78-2.85,17.8,0l.55.54-.55.54C61.59,42,57.91,42.7,54.2,42.7s-7.44-.72-9-2.14L44.57,40ZM63.4,47.66a1.7,1.7,0,0,1-1,1.31l-.83.3a18.27,18.27,0,0,1-3.2,1,23.55,23.55,0,0,1-4.32.4,22.84,22.84,0,0,1-6.1-.83l-.61-.19c-2.22-.79-2.48-1.15-2.48-3.49V43.51l1,.32a26,26,0,0,0,16.64,0l1-.32v1.85C63.44,46.12,63.44,46.89,63.4,47.66ZM44.81,53.25V51.4l1,.33a25.81,25.81,0,0,0,16.63,0l1-.32v1.86c0,.72,0,1.46,0,2.2a1.73,1.73,0,0,1-1,1.38l-.74.28a19,19,0,0,1-3.29,1,23.21,23.21,0,0,1-4.36.41,21.64,21.64,0,0,1-6.06-.85,10.75,10.75,0,0,1-2.25-1,1.91,1.91,0,0,1-.84-1.44C44.8,54.62,44.81,54,44.81,53.25ZM63.4,63.34a1.71,1.71,0,0,1-1,1.39l-.76.29a19.52,19.52,0,0,1-3.33,1,23.33,23.33,0,0,1-4.3.4,22.42,22.42,0,0,1-6-.83l-.35-.1c-2.55-.84-2.79-1.16-2.79-3.8V59.3l1,.32a25.81,25.81,0,0,0,16.63,0l1-.32v1.87C63.44,61.92,63.45,62.62,63.4,63.34ZM54,74.35a22.51,22.51,0,0,1-6-.82l-.14,0c-2.69-.81-3-1.22-3-4V67.2l1,.32a25.84,25.84,0,0,0,16.64,0l1-.33v1.87c0,.74,0,1.44,0,2.16a1.74,1.74,0,0,1-1,1.39l-.77.29a18.32,18.32,0,0,1-3.32,1A23.52,23.52,0,0,1,54,74.35Z"/><path d="M28.84,39.66h0A10.43,10.43,0,1,0,18.42,29.22,10.44,10.44,0,0,0,28.85,39.66Zm0-18.42h0a8,8,0,0,1,0,16h0a8,8,0,0,1,0-16Z"/></g></g></svg>