<svg xmlns="http://www.w3.org/2000/svg" xmlns:xlink="http://www.w3.org/1999/xlink" viewBox="0 0 66.36 68.68"><defs><style>.cls-1{fill:url(#linear-gradient);}.cls-2,.cls-3{stroke:#000;stroke-miterlimit:10;}.cls-2{stroke-width:0.25px;}.cls-3{fill:none;stroke-width:2.3px;}</style><linearGradient id="linear-gradient" x1="-12.36" y1="-11.04" x2="54.17" y2="72.4" gradientUnits="userSpaceOnUse"><stop offset="0" stop-color="#58b4f9"/><stop offset="1" stop-color="#87d6dc"/></linearGradient></defs><title>geospatial</title><g id="Layer_2" data-name="Layer 2"><g id="Layer_1-2" data-name="Layer 1"><polygon class="cls-1" points="51.94 41.5 25.97 0 0 41.5 51.94 41.5"/><path class="cls-2" d="M31.89,37.65a28.6,28.6,0,0,1-2.73-7.49A15.92,15.92,0,0,1,31.85,17.9,17.28,17.28,0,0,1,46.78,10H47c8.1.08,15.5,6.52,16.86,14.66.56,3.35,0,6.67-1.77,10.78a88,88,0,0,1-8.6,14.87c-1.34,1.94-2.76,3.84-4.13,5.69l-.1.13c-.57.76-1.13,1.52-1.69,2.29-.09.12-.19.24-.32.39l-.82,1-1.78-2.35c-.76-1-1.51-2-2.24-3A117.08,117.08,0,0,1,31.89,37.65ZM56.12,50.38A84.13,84.13,0,0,0,64.4,35.61,20,20,0,0,0,66,24.07a19.87,19.87,0,0,0-18.5-16.2h-.74a19.31,19.31,0,0,0-16.93,9.2,18.3,18.3,0,0,0-3,12.26,26,26,0,0,0,2.49,8,95.76,95.76,0,0,0,8.6,14.62C38,52,44.23,60.42,45.51,62a1.13,1.13,0,0,0,2,0C48.27,61,55.8,50.85,56.12,50.38Z"/><path class="cls-2" d="M54.3,35.09a10.31,10.31,0,0,0,3.06-7.34A10.45,10.45,0,0,0,47,17.25h0A10.44,10.44,0,1,0,54.3,35.09ZM47,35.84v.24h0l0-.24a8.11,8.11,0,0,1-8.08-8.13,8.18,8.18,0,0,1,2.42-5.83,8,8,0,0,1,5.64-2.36H47A8.16,8.16,0,0,1,47,35.84Z"/><path class="cls-3" d="M52.66,53.33c7.27,1,12.48,3.71,12.48,6.9,0,4-8.36,7.3-18.66,7.3s-18.67-3.27-18.67-7.3c0-3.16,5.11-5.84,12.26-6.87"/></g></g></svg>