<svg xmlns="http://www.w3.org/2000/svg" xmlns:xlink="http://www.w3.org/1999/xlink" viewBox="0 0 131 131"><defs><style>.cls-1{isolation:isolate;}.cls-2{fill:none;stroke:#09294b;stroke-linecap:round;stroke-linejoin:round;stroke-width:3px;}.cls-3{fill:url(#linear-gradient);}.cls-4{fill:url(#linear-gradient-2);}.cls-5{fill:url(#linear-gradient-3);}.cls-6{mix-blend-mode:color-burn;}.cls-7{fill:url(#linear-gradient-4);}</style><linearGradient id="linear-gradient" x1="1150.68" y1="1465.32" x2="1163.86" y2="1465.32" gradientTransform="translate(-1356.5 1189.83) rotate(-90)" gradientUnits="userSpaceOnUse"><stop offset="0" stop-color="#8fc4fd"/><stop offset="0.29" stop-color="#6c9ef6"/><stop offset="0.58" stop-color="#4e7eef"/><stop offset="0.83" stop-color="#3c6aeb"/><stop offset="1" stop-color="#3563ea"/></linearGradient><linearGradient id="linear-gradient-2" x1="1028.23" y1="1567.68" x2="1041.41" y2="1567.68" gradientTransform="translate(-1552.24 1103.69) rotate(-90)" xlink:href="#linear-gradient"/><linearGradient id="linear-gradient-3" x1="1181.85" y1="1539.87" x2="1195.04" y2="1539.87" gradientTransform="translate(-1427.46 1271.61) rotate(-90)" xlink:href="#linear-gradient"/><linearGradient id="linear-gradient-4" x1="40.23" y1="99.89" x2="67.83" y2="31.6" gradientUnits="userSpaceOnUse"><stop offset="0" stop-color="#9cfacd"/><stop offset="1" stop-color="#139df2"/></linearGradient></defs><title>Places Patterns</title><g class="cls-1"><g id="Layer_1" data-name="Layer 1"><path class="cls-2" d="M85.06,91c1.64.14,4.33.41,5.92.6a117.06,117.06,0,0,1,14.67,2.56c20.36,5.08,20.48,13.38.27,18.54s-53.12,5.22-73.48.15S12,99.44,32.18,94.28a135.47,135.47,0,0,1,23-3.63"/><g class="cls-1"><path class="cls-2" d="M71.87,59.85c-5.49-4-7.08-10.36-6.83-13.42.41-5.08,1.48-5.75,1.48-5.75"/><path class="cls-2" d="M60.61,39.1c-3.4.93-5.77,4.83-5.71,10.11.08,6.84,4.23,13.41,9.26,14.66"/><path class="cls-2" d="M63.63,18.44C77.88,22,89.61,40.6,89.85,60c.23,18.91-23.17,43.84-24.17,44.88a1.06,1.06,0,0,1-1,.31,1.92,1.92,0,0,1-1-.83c-1-1.55-25.15-38.32-25.37-57.24C38,27.74,49.38,14.91,63.63,18.44Zm.53,45.43c5,1.25,9-3.28,9-10.11S68.9,40.35,63.87,39.09s-9,3.28-9,10.12,4.23,13.41,9.26,14.66"/><path class="cls-2" d="M73.76,15.66a18.05,18.05,0,0,0-9.21,0L54.41,18.47a18.09,18.09,0,0,1,9.22,0C77.88,22,89.61,40.6,89.85,60c.23,18.91-23.17,43.84-24.17,44.88a1.16,1.16,0,0,1-.5.31l10.14-2.79a1.07,1.07,0,0,0,.5-.31c1-1,24.39-26,24.17-44.88C99.75,37.82,88,19.23,73.76,15.66Z"/></g><line class="cls-2" x1="103.66" y1="35.6" x2="96.93" y2="38.1"/><line class="cls-2" x1="108.82" y1="38.56" x2="111.83" y2="77.17"/><line class="cls-2" x1="40.48" y1="59.05" x2="20.86" y2="66.34"/><line class="cls-2" x1="21.43" y1="70.34" x2="106.46" y2="82.43"/><circle class="cls-3" cx="108.82" cy="32.56" r="6.59"/><circle class="cls-4" cx="15.43" cy="68.88" r="6.59"/><circle class="cls-5" cx="112.41" cy="83.16" r="6.59"/><g class="cls-6"><g class="cls-1"><path class="cls-7" d="M58.25,20.48C72.5,24.06,84.23,42.64,84.48,62c.22,18.91-23.18,43.84-24.18,44.88a1.06,1.06,0,0,1-1,.31,1.92,1.92,0,0,1-1-.83c-1-1.55-25.15-38.32-25.37-57.24C32.63,29.78,44,17,58.25,20.48Zm.53,45.43c5,1.25,9-3.28,9-10.11s-4.23-13.41-9.26-14.67-9.05,3.28-9,10.12,4.23,13.41,9.26,14.66"/></g></g></g></g></svg>