<svg xmlns="http://www.w3.org/2000/svg" xmlns:xlink="http://www.w3.org/1999/xlink" viewBox="0 0 76.26 59.62"><defs><style>.cls-1{fill:url(#linear-gradient);}</style><linearGradient id="linear-gradient" x1="467.31" y1="-656.2" x2="526.27" y2="-582.25" gradientTransform="translate(-597.93 -476.92) rotate(90)" gradientUnits="userSpaceOnUse"><stop offset="0" stop-color="#58b4f9"/><stop offset="1" stop-color="#87d6dc"/></linearGradient></defs><title>public-health</title><g id="Layer_2" data-name="Layer 2"><g id="Layer_1-2" data-name="Layer 1"><polygon class="cls-1" points="37.75 32.7 37.75 10.9 18.88 0 0 10.9 0 32.7 18.88 43.59 37.75 32.7"/><path d="M43.44,59.62a2,2,0,0,1-1.25-.73L36.27,53,18.52,35.23a2,2,0,0,0-1.21-.52l-2.33,0H12.75a1.7,1.7,0,0,1-1.18-.43,1.19,1.19,0,0,1-.33-.88c0-.77.6-1.26,1.5-1.27H16l-.41-.9a16.64,16.64,0,0,1,14.91-24,16.41,16.41,0,0,1,5.9,1.1A17.12,17.12,0,0,1,43,12.86l.47.5.46-.5A16.49,16.49,0,0,1,55.67,7.24l.82,0a16,16,0,0,1,9.46,3,16.18,16.18,0,0,1,6.49,9.47A16.44,16.44,0,0,1,71.2,31.21l-.43.91H75a1.28,1.28,0,0,1,0,2.55c-1.95,0-4.66,0-5.41,0a1.89,1.89,0,0,0-1.21.5l-20,20L44.7,58.88a2,2,0,0,1-1.26.74Zm0-3.42,21.5-21.5H56.38a1.53,1.53,0,0,1-1.47-.8c-.23-.4-.48-.79-.73-1.18l-2.85-4.49-.93,1.58-1.5,2.62q-2.22,3.85-4.42,7.72c-.38.68-.76,1-1.29,1s-1-.31-1.33-1c-1-2.06-2.07-4.1-3.1-6.15l-5.18-10.2-.66,1.43a3.8,3.8,0,0,0-.19.43l-3,7.14c-.83,2-.83,2-3,2H21.89ZM33.46,19.3a1.26,1.26,0,0,1,1.2.85c.24.5.5,1,.75,1.49l7.82,15.42s.94-1.55,1-1.68L50,25.32a1.53,1.53,0,0,1,1.25-.91,1.61,1.61,0,0,1,1.26.87L53.6,27q1.38,2.18,2.75,4.36a1.49,1.49,0,0,0,1.4.78h9a1.51,1.51,0,0,0,1.41-.77A14,14,0,0,0,56.33,9.77,13.43,13.43,0,0,0,49,12a22.87,22.87,0,0,0-3.31,2.81c-.41.4-.82.79-1.24,1.17a1.57,1.57,0,0,1-1,.48,1.45,1.45,0,0,1-1-.47c-.32-.31-.64-.64-1-1l-1.13-1.12A13.69,13.69,0,0,0,30.58,9.8a16.37,16.37,0,0,0-1.95.13,13.72,13.72,0,0,0-10.84,8,13.74,13.74,0,0,0,1,13.46,1.44,1.44,0,0,0,1.29.7l3.13,0,3,0h0a1.4,1.4,0,0,0,1.44-1q1.41-3.39,2.83-6.77l1.74-4.16a1.3,1.3,0,0,1,1.22-.95Z"/></g></g></svg>